G75*
G70*
%OFA0B0*%
%FSLAX24Y24*%
%IPPOS*%
%LPD*%
%AMOC8*
5,1,8,0,0,1.08239X$1,22.5*
%
%ADD10C,0.1380*%
%ADD11C,0.0880*%
%ADD12C,0.2080*%
%ADD13C,0.0780*%
%ADD14OC8,0.0600*%
%ADD15C,0.0600*%
%ADD16R,0.0680X0.0680*%
%ADD17OC8,0.0680*%
%ADD18R,0.0880X0.0880*%
%ADD19C,0.0820*%
%ADD20C,0.0050*%
%ADD21C,0.0480*%
D10*
X001121Y001101D03*
X001121Y019101D03*
X019121Y019101D03*
X019121Y001101D03*
D11*
X011825Y017601D03*
X010307Y017601D03*
X009069Y017601D03*
X015621Y018601D03*
X017121Y018601D03*
D12*
X005121Y017601D03*
X002621Y017601D03*
D13*
X006621Y008451D02*
X006621Y007751D01*
X007621Y007751D02*
X007621Y008451D01*
X008621Y008451D02*
X008621Y007751D01*
X009621Y007751D02*
X009621Y008451D01*
X010621Y008451D02*
X010621Y007751D01*
X011621Y007751D02*
X011621Y008451D01*
X012621Y008451D02*
X012621Y007751D01*
X013621Y007751D02*
X013621Y008451D01*
X013621Y004451D02*
X013621Y003751D01*
X012621Y003751D02*
X012621Y004451D01*
X011621Y004451D02*
X011621Y003751D01*
X010621Y003751D02*
X010621Y004451D01*
X009621Y004451D02*
X009621Y003751D01*
X008621Y003751D02*
X008621Y004451D01*
X007621Y004451D02*
X007621Y003751D01*
X006621Y003751D02*
X006621Y004451D01*
D14*
X008621Y002101D03*
X007871Y001601D03*
X008621Y001101D03*
X006621Y001601D03*
X006621Y000601D03*
X004621Y001101D03*
X003871Y001601D03*
X004621Y002101D03*
X002621Y001601D03*
X002621Y000601D03*
X011121Y000601D03*
X011121Y001601D03*
X012371Y001601D03*
X013121Y002101D03*
X013121Y001101D03*
X015121Y001601D03*
X015121Y000601D03*
X016371Y001601D03*
X017121Y002101D03*
X017121Y001101D03*
X013121Y009601D03*
X013121Y010601D03*
X011621Y010601D03*
X011621Y009601D03*
X010121Y009601D03*
X010121Y010601D03*
X008621Y010601D03*
X008621Y009601D03*
X007121Y009601D03*
X007121Y010601D03*
X005621Y010601D03*
X005621Y009601D03*
X004121Y009601D03*
X004121Y010601D03*
X004121Y016101D03*
X003121Y016101D03*
X013621Y017101D03*
X017621Y016101D03*
X018621Y016101D03*
X018621Y017101D03*
X018121Y014101D03*
X018121Y013101D03*
D15*
X016121Y012361D02*
X016121Y011841D01*
X015121Y011841D02*
X015121Y012361D01*
X014121Y012361D02*
X014121Y011841D01*
X013121Y011841D02*
X013121Y012361D01*
X012121Y012361D02*
X012121Y011841D01*
X011121Y011841D02*
X011121Y012361D01*
X010121Y012361D02*
X010121Y011841D01*
X009121Y011841D02*
X009121Y012361D01*
X008121Y012361D02*
X008121Y011841D01*
X007121Y011841D02*
X007121Y012361D01*
X006121Y012361D02*
X006121Y011841D01*
X005121Y011841D02*
X005121Y012361D01*
X004121Y012361D02*
X004121Y011841D01*
X003121Y011841D02*
X003121Y012361D01*
X003121Y014841D02*
X003121Y015361D01*
X004121Y015361D02*
X004121Y014841D01*
X005121Y014841D02*
X005121Y015361D01*
X006121Y015361D02*
X006121Y014841D01*
X007121Y014841D02*
X007121Y015361D01*
X008121Y015361D02*
X008121Y014841D01*
X009121Y014841D02*
X009121Y015361D01*
X010121Y015361D02*
X010121Y014841D01*
X011121Y014841D02*
X011121Y015361D01*
X012121Y015361D02*
X012121Y014841D01*
X013121Y014841D02*
X013121Y015361D01*
X014121Y015361D02*
X014121Y014841D01*
X015121Y014841D02*
X015121Y015361D01*
X016121Y015361D02*
X016121Y014841D01*
D16*
X016121Y009601D03*
D17*
X016121Y010601D03*
X017121Y010601D03*
X018121Y010601D03*
X018121Y009601D03*
X017121Y009601D03*
D18*
X007551Y017601D03*
D19*
X001121Y016101D03*
X001121Y015101D03*
D20*
X001123Y006017D02*
X001056Y006012D01*
X000991Y005993D01*
X000932Y005963D01*
X000879Y005921D01*
X000835Y005870D01*
X000802Y005811D01*
X000782Y005747D01*
X000774Y005681D01*
X000779Y005612D01*
X000798Y005546D01*
X000829Y005485D01*
X000871Y005431D01*
X000923Y005387D01*
X000983Y005353D01*
X001048Y005332D01*
X001116Y005324D01*
X001185Y005331D01*
X001251Y005352D01*
X001312Y005385D01*
X001365Y005430D01*
X001409Y005484D01*
X001441Y005545D01*
X001461Y005612D01*
X001467Y005681D01*
X001460Y005747D01*
X001440Y005811D01*
X001407Y005869D01*
X001365Y005920D01*
X001313Y005962D01*
X001253Y005992D01*
X001189Y006011D01*
X001123Y006017D01*
X001288Y005975D02*
X000955Y005975D01*
X000885Y005926D02*
X001357Y005926D01*
X001400Y005877D02*
X000842Y005877D01*
X000812Y005829D02*
X001429Y005829D01*
X001449Y005780D02*
X000792Y005780D01*
X000780Y005732D02*
X001461Y005732D01*
X001467Y005683D02*
X000774Y005683D01*
X000777Y005635D02*
X001463Y005635D01*
X001453Y005586D02*
X000787Y005586D01*
X000802Y005538D02*
X001437Y005538D01*
X001412Y005489D02*
X000827Y005489D01*
X000864Y005441D02*
X001374Y005441D01*
X001320Y005392D02*
X000917Y005392D01*
X001013Y005343D02*
X001224Y005343D01*
X001191Y004939D02*
X001255Y004920D01*
X001313Y004889D01*
X001365Y004847D01*
X001408Y004796D01*
X001439Y004738D01*
X001459Y004675D01*
X001466Y004609D01*
X001459Y004540D01*
X001440Y004474D01*
X001407Y004413D01*
X001364Y004359D01*
X001311Y004315D01*
X001250Y004282D01*
X001184Y004262D01*
X001115Y004255D01*
X001048Y004262D01*
X000984Y004283D01*
X000925Y004316D01*
X000874Y004359D01*
X000832Y004412D01*
X000801Y004472D01*
X000782Y004537D01*
X000777Y004604D01*
X000784Y004671D01*
X000804Y004735D01*
X000837Y004795D01*
X000880Y004846D01*
X000933Y004889D01*
X000993Y004920D01*
X001058Y004939D01*
X001125Y004945D01*
X001191Y004939D01*
X001280Y004907D02*
X000967Y004907D01*
X000895Y004858D02*
X001352Y004858D01*
X001397Y004809D02*
X000849Y004809D01*
X000818Y004761D02*
X001427Y004761D01*
X001447Y004712D02*
X000797Y004712D01*
X000783Y004664D02*
X001460Y004664D01*
X001465Y004615D02*
X000778Y004615D01*
X000780Y004567D02*
X001462Y004567D01*
X001453Y004518D02*
X000788Y004518D01*
X000802Y004470D02*
X001438Y004470D01*
X001412Y004421D02*
X000827Y004421D01*
X000863Y004373D02*
X001375Y004373D01*
X001321Y004324D02*
X000915Y004324D01*
X001007Y004276D02*
X001228Y004276D01*
X001194Y003870D02*
X001257Y003850D01*
X001316Y003819D01*
X001367Y003778D01*
X001409Y003726D01*
X001441Y003668D01*
X001460Y003605D01*
X001467Y003539D01*
X001461Y003471D01*
X001442Y003405D01*
X001410Y003345D01*
X001367Y003291D01*
X001315Y003247D01*
X001255Y003215D01*
X001190Y003194D01*
X001122Y003187D01*
X001054Y003194D01*
X000989Y003215D01*
X000929Y003247D01*
X000877Y003291D01*
X000834Y003345D01*
X000802Y003405D01*
X000783Y003471D01*
X000777Y003539D01*
X000785Y003606D01*
X000806Y003670D01*
X000839Y003729D01*
X000883Y003780D01*
X000936Y003822D01*
X000996Y003852D01*
X001061Y003871D01*
X001128Y003876D01*
X001194Y003870D01*
X001280Y003839D02*
X000969Y003839D01*
X000895Y003790D02*
X001352Y003790D01*
X001397Y003742D02*
X000850Y003742D01*
X000819Y003693D02*
X001427Y003693D01*
X001448Y003644D02*
X000797Y003644D01*
X000784Y003596D02*
X001461Y003596D01*
X001466Y003547D02*
X000778Y003547D01*
X000780Y003499D02*
X001463Y003499D01*
X001455Y003450D02*
X000789Y003450D01*
X000804Y003402D02*
X001440Y003402D01*
X001415Y003353D02*
X000829Y003353D01*
X000866Y003305D02*
X001378Y003305D01*
X001325Y003256D02*
X000919Y003256D01*
X001011Y003208D02*
X001232Y003208D01*
D21*
X003371Y004601D03*
M02*
