G75*
G70*
%OFA0B0*%
%FSLAX24Y24*%
%IPPOS*%
%LPD*%
%AMOC8*
5,1,8,0,0,1.08239X$1,22.5*
%
%ADD10C,0.1380*%
%ADD11C,0.0880*%
%ADD12C,0.2080*%
%ADD13C,0.0780*%
%ADD14OC8,0.0600*%
%ADD15C,0.0600*%
%ADD16R,0.0680X0.0680*%
%ADD17OC8,0.0680*%
%ADD18R,0.0880X0.0880*%
%ADD19C,0.0820*%
%ADD20C,0.0050*%
%ADD21C,0.0480*%
D10*
X001121Y001101D03*
X001121Y019101D03*
X019121Y019101D03*
X019121Y001101D03*
D11*
X011825Y017601D03*
X010307Y017601D03*
X009069Y017601D03*
X015621Y018601D03*
X017121Y018601D03*
D12*
X005121Y017601D03*
X002621Y017601D03*
D13*
X006621Y008451D02*
X006621Y007751D01*
X007621Y007751D02*
X007621Y008451D01*
X008621Y008451D02*
X008621Y007751D01*
X009621Y007751D02*
X009621Y008451D01*
X010621Y008451D02*
X010621Y007751D01*
X011621Y007751D02*
X011621Y008451D01*
X012621Y008451D02*
X012621Y007751D01*
X013621Y007751D02*
X013621Y008451D01*
X013621Y004451D02*
X013621Y003751D01*
X012621Y003751D02*
X012621Y004451D01*
X011621Y004451D02*
X011621Y003751D01*
X010621Y003751D02*
X010621Y004451D01*
X009621Y004451D02*
X009621Y003751D01*
X008621Y003751D02*
X008621Y004451D01*
X007621Y004451D02*
X007621Y003751D01*
X006621Y003751D02*
X006621Y004451D01*
D14*
X008621Y002101D03*
X007871Y001601D03*
X008621Y001101D03*
X006621Y001601D03*
X006621Y000601D03*
X004621Y001101D03*
X003871Y001601D03*
X004621Y002101D03*
X002621Y001601D03*
X002621Y000601D03*
X011121Y000601D03*
X011121Y001601D03*
X012371Y001601D03*
X013121Y002101D03*
X013121Y001101D03*
X015121Y001601D03*
X015121Y000601D03*
X016371Y001601D03*
X017121Y002101D03*
X017121Y001101D03*
X013121Y009601D03*
X013121Y010601D03*
X011621Y010601D03*
X011621Y009601D03*
X010121Y009601D03*
X010121Y010601D03*
X008621Y010601D03*
X008621Y009601D03*
X007121Y009601D03*
X007121Y010601D03*
X005621Y010601D03*
X005621Y009601D03*
X004121Y009601D03*
X004121Y010601D03*
X004121Y016101D03*
X003121Y016101D03*
X013621Y017101D03*
X017621Y016101D03*
X018621Y016101D03*
X018621Y017101D03*
X018121Y014101D03*
X018121Y013101D03*
D15*
X016121Y012361D02*
X016121Y011841D01*
X015121Y011841D02*
X015121Y012361D01*
X014121Y012361D02*
X014121Y011841D01*
X013121Y011841D02*
X013121Y012361D01*
X012121Y012361D02*
X012121Y011841D01*
X011121Y011841D02*
X011121Y012361D01*
X010121Y012361D02*
X010121Y011841D01*
X009121Y011841D02*
X009121Y012361D01*
X008121Y012361D02*
X008121Y011841D01*
X007121Y011841D02*
X007121Y012361D01*
X006121Y012361D02*
X006121Y011841D01*
X005121Y011841D02*
X005121Y012361D01*
X004121Y012361D02*
X004121Y011841D01*
X003121Y011841D02*
X003121Y012361D01*
X003121Y014841D02*
X003121Y015361D01*
X004121Y015361D02*
X004121Y014841D01*
X005121Y014841D02*
X005121Y015361D01*
X006121Y015361D02*
X006121Y014841D01*
X007121Y014841D02*
X007121Y015361D01*
X008121Y015361D02*
X008121Y014841D01*
X009121Y014841D02*
X009121Y015361D01*
X010121Y015361D02*
X010121Y014841D01*
X011121Y014841D02*
X011121Y015361D01*
X012121Y015361D02*
X012121Y014841D01*
X013121Y014841D02*
X013121Y015361D01*
X014121Y015361D02*
X014121Y014841D01*
X015121Y014841D02*
X015121Y015361D01*
X016121Y015361D02*
X016121Y014841D01*
D16*
X016121Y009601D03*
D17*
X016121Y010601D03*
X017121Y010601D03*
X018121Y010601D03*
X018121Y009601D03*
X017121Y009601D03*
D18*
X007551Y017601D03*
D19*
X001121Y016101D03*
X001121Y015101D03*
D20*
X001120Y005847D02*
X001081Y005843D01*
X001045Y005830D01*
X001012Y005810D01*
X000984Y005783D01*
X000964Y005750D01*
X000951Y005714D01*
X000946Y005676D01*
X000950Y005636D01*
X000962Y005599D01*
X000983Y005565D01*
X001010Y005536D01*
X001043Y005515D01*
X001081Y005501D01*
X001120Y005496D01*
X001160Y005501D01*
X001197Y005516D01*
X001231Y005538D01*
X001259Y005567D01*
X001279Y005601D01*
X001291Y005640D01*
X001295Y005680D01*
X001290Y005718D01*
X001276Y005754D01*
X001255Y005786D01*
X001227Y005812D01*
X001195Y005832D01*
X001158Y005843D01*
X001120Y005847D01*
X001043Y005829D02*
X001199Y005829D01*
X001259Y005780D02*
X000983Y005780D01*
X000957Y005732D02*
X001284Y005732D01*
X001294Y005683D02*
X000947Y005683D01*
X000950Y005635D02*
X001290Y005635D01*
X001270Y005586D02*
X000970Y005586D01*
X001009Y005538D02*
X001231Y005538D01*
X001155Y004773D02*
X001192Y004762D01*
X001224Y004742D01*
X001252Y004716D01*
X001273Y004684D01*
X001287Y004648D01*
X001292Y004610D01*
X001288Y004570D01*
X001276Y004531D01*
X001256Y004497D01*
X001228Y004468D01*
X001194Y004446D01*
X001157Y004431D01*
X001117Y004426D01*
X001078Y004431D01*
X001040Y004445D01*
X001007Y004466D01*
X000980Y004495D01*
X000959Y004529D01*
X000947Y004566D01*
X000943Y004606D01*
X000948Y004644D01*
X000961Y004680D01*
X000981Y004713D01*
X001009Y004740D01*
X001042Y004760D01*
X001079Y004773D01*
X001117Y004777D01*
X001155Y004773D01*
X001193Y004761D02*
X001044Y004761D01*
X000981Y004712D02*
X001254Y004712D01*
X001281Y004664D02*
X000955Y004664D01*
X000944Y004615D02*
X001291Y004615D01*
X001287Y004567D02*
X000947Y004567D01*
X000966Y004518D02*
X001268Y004518D01*
X001230Y004470D02*
X001004Y004470D01*
X001083Y003701D02*
X001121Y003705D01*
X001159Y003701D01*
X001196Y003690D01*
X001228Y003670D01*
X001256Y003644D01*
X001277Y003612D01*
X001291Y003576D01*
X001296Y003538D01*
X001292Y003498D01*
X001280Y003459D01*
X001260Y003425D01*
X001232Y003396D01*
X001198Y003374D01*
X001161Y003359D01*
X001121Y003354D01*
X001082Y003359D01*
X001044Y003373D01*
X001011Y003394D01*
X000984Y003423D01*
X000963Y003457D01*
X000951Y003494D01*
X000947Y003534D01*
X000952Y003572D01*
X000965Y003608D01*
X000986Y003641D01*
X001013Y003668D01*
X001046Y003688D01*
X001083Y003701D01*
X001060Y003693D02*
X001185Y003693D01*
X001255Y003644D02*
X000989Y003644D01*
X000960Y003596D02*
X001283Y003596D01*
X001295Y003547D02*
X000949Y003547D01*
X000950Y003499D02*
X001293Y003499D01*
X001275Y003450D02*
X000967Y003450D01*
X001004Y003402D02*
X001238Y003402D01*
D21*
X003371Y004601D03*
M02*
