%
M48
M72
T01C0.0240
T02C0.0320
T03C0.0400
T04C0.0472
T05C0.0800
T06C0.1300
T07C0.2000
%
T01
X3371Y4601
T02
X4621Y2101
X3871Y1601
X4621Y1101
X2621Y1601
X2621Y601
X6621Y601
X6621Y1601
X7871Y1601
X8621Y2101
X8621Y1101
X11121Y1601
X11121Y601
X12371Y1601
X13121Y2101
X13121Y1101
X15121Y1601
X15121Y601
X16371Y1601
X17121Y2101
X17121Y1101
X13121Y9601
X13121Y10601
X13121Y12101
X14121Y12101
X15121Y12101
X16121Y12101
X18121Y13101
X18121Y14101
X17621Y16101
X18621Y16101
X18621Y17101
X16121Y15101
X15121Y15101
X14121Y15101
X13121Y15101
X12121Y15101
X11121Y15101
X10121Y15101
X9121Y15101
X8121Y15101
X7121Y15101
X6121Y15101
X5121Y15101
X4121Y15101
X4121Y16101
X3121Y16101
X3121Y15101
X1121Y15101
X1121Y16101
X3121Y12101
X4121Y12101
X5121Y12101
X6121Y12101
X7121Y12101
X8121Y12101
X9121Y12101
X10121Y12101
X11121Y12101
X12121Y12101
X11621Y10601
X11621Y9601
X10121Y9601
X10121Y10601
X8621Y10601
X8621Y9601
X7121Y9601
X7121Y10601
X5621Y10601
X5621Y9601
X4121Y9601
X4121Y10601
X13621Y17101
T03
X16121Y10601
X17121Y10601
X18121Y10601
X18121Y9601
X17121Y9601
X16121Y9601
X13621Y8101
X12621Y8101
X11621Y8101
X10621Y8101
X9621Y8101
X8621Y8101
X7621Y8101
X6621Y8101
X6621Y4101
X7621Y4101
X8621Y4101
X9621Y4101
X10621Y4101
X11621Y4101
X12621Y4101
X13621Y4101
X1121Y4601
X1121Y3531
X1121Y5671
T04
X7551Y17601
X9069Y17601
X10307Y17601
X11825Y17601
T05
X15621Y18601
X17121Y18601
T06
X1121Y1101
X1121Y19101
X19121Y19101
X19121Y1101
T07
X5121Y17601
X2621Y17601
M30
