G75*
G70*
%OFA0B0*%
%FSLAX24Y24*%
%IPPOS*%
%LPD*%
%AMOC8*
5,1,8,0,0,1.08239X$1,22.5*
%
%ADD10C,0.0000*%
%ADD11C,0.0700*%
%ADD12OC8,0.0520*%
%ADD13C,0.0520*%
%ADD14R,0.0600X0.0600*%
%ADD15OC8,0.0600*%
%ADD16R,0.0800X0.0800*%
%ADD17C,0.0800*%
%ADD18C,0.0740*%
%ADD19C,0.0100*%
%ADD20C,0.0400*%
D10*
X000121Y000101D02*
X000121Y018847D01*
X000471Y019101D02*
X000473Y019151D01*
X000479Y019201D01*
X000489Y019251D01*
X000502Y019299D01*
X000519Y019347D01*
X000540Y019393D01*
X000564Y019437D01*
X000592Y019479D01*
X000623Y019519D01*
X000657Y019556D01*
X000694Y019591D01*
X000733Y019622D01*
X000774Y019651D01*
X000818Y019676D01*
X000864Y019698D01*
X000911Y019716D01*
X000959Y019730D01*
X001008Y019741D01*
X001058Y019748D01*
X001108Y019751D01*
X001159Y019750D01*
X001209Y019745D01*
X001259Y019736D01*
X001307Y019724D01*
X001355Y019707D01*
X001401Y019687D01*
X001446Y019664D01*
X001489Y019637D01*
X001529Y019607D01*
X001567Y019574D01*
X001602Y019538D01*
X001635Y019499D01*
X001664Y019458D01*
X001690Y019415D01*
X001713Y019370D01*
X001732Y019323D01*
X001747Y019275D01*
X001759Y019226D01*
X001767Y019176D01*
X001771Y019126D01*
X001771Y019076D01*
X001767Y019026D01*
X001759Y018976D01*
X001747Y018927D01*
X001732Y018879D01*
X001713Y018832D01*
X001690Y018787D01*
X001664Y018744D01*
X001635Y018703D01*
X001602Y018664D01*
X001567Y018628D01*
X001529Y018595D01*
X001489Y018565D01*
X001446Y018538D01*
X001401Y018515D01*
X001355Y018495D01*
X001307Y018478D01*
X001259Y018466D01*
X001209Y018457D01*
X001159Y018452D01*
X001108Y018451D01*
X001058Y018454D01*
X001008Y018461D01*
X000959Y018472D01*
X000911Y018486D01*
X000864Y018504D01*
X000818Y018526D01*
X000774Y018551D01*
X000733Y018580D01*
X000694Y018611D01*
X000657Y018646D01*
X000623Y018683D01*
X000592Y018723D01*
X000564Y018765D01*
X000540Y018809D01*
X000519Y018855D01*
X000502Y018903D01*
X000489Y018951D01*
X000479Y019001D01*
X000473Y019051D01*
X000471Y019101D01*
X000121Y018847D02*
X000123Y018915D01*
X000128Y018982D01*
X000137Y019049D01*
X000150Y019116D01*
X000167Y019181D01*
X000186Y019246D01*
X000210Y019310D01*
X000237Y019372D01*
X000267Y019433D01*
X000300Y019491D01*
X000336Y019548D01*
X000376Y019603D01*
X000418Y019656D01*
X000464Y019707D01*
X000511Y019754D01*
X000562Y019800D01*
X000615Y019842D01*
X000670Y019882D01*
X000727Y019918D01*
X000785Y019951D01*
X000846Y019981D01*
X000908Y020008D01*
X000972Y020032D01*
X001037Y020051D01*
X001102Y020068D01*
X001169Y020081D01*
X001236Y020090D01*
X001303Y020095D01*
X001371Y020097D01*
X019991Y020097D01*
X019991Y001351D01*
X018471Y001101D02*
X018473Y001151D01*
X018479Y001201D01*
X018489Y001251D01*
X018502Y001299D01*
X018519Y001347D01*
X018540Y001393D01*
X018564Y001437D01*
X018592Y001479D01*
X018623Y001519D01*
X018657Y001556D01*
X018694Y001591D01*
X018733Y001622D01*
X018774Y001651D01*
X018818Y001676D01*
X018864Y001698D01*
X018911Y001716D01*
X018959Y001730D01*
X019008Y001741D01*
X019058Y001748D01*
X019108Y001751D01*
X019159Y001750D01*
X019209Y001745D01*
X019259Y001736D01*
X019307Y001724D01*
X019355Y001707D01*
X019401Y001687D01*
X019446Y001664D01*
X019489Y001637D01*
X019529Y001607D01*
X019567Y001574D01*
X019602Y001538D01*
X019635Y001499D01*
X019664Y001458D01*
X019690Y001415D01*
X019713Y001370D01*
X019732Y001323D01*
X019747Y001275D01*
X019759Y001226D01*
X019767Y001176D01*
X019771Y001126D01*
X019771Y001076D01*
X019767Y001026D01*
X019759Y000976D01*
X019747Y000927D01*
X019732Y000879D01*
X019713Y000832D01*
X019690Y000787D01*
X019664Y000744D01*
X019635Y000703D01*
X019602Y000664D01*
X019567Y000628D01*
X019529Y000595D01*
X019489Y000565D01*
X019446Y000538D01*
X019401Y000515D01*
X019355Y000495D01*
X019307Y000478D01*
X019259Y000466D01*
X019209Y000457D01*
X019159Y000452D01*
X019108Y000451D01*
X019058Y000454D01*
X019008Y000461D01*
X018959Y000472D01*
X018911Y000486D01*
X018864Y000504D01*
X018818Y000526D01*
X018774Y000551D01*
X018733Y000580D01*
X018694Y000611D01*
X018657Y000646D01*
X018623Y000683D01*
X018592Y000723D01*
X018564Y000765D01*
X018540Y000809D01*
X018519Y000855D01*
X018502Y000903D01*
X018489Y000951D01*
X018479Y001001D01*
X018473Y001051D01*
X018471Y001101D01*
X018741Y000101D02*
X018809Y000103D01*
X018876Y000108D01*
X018943Y000117D01*
X019010Y000130D01*
X019075Y000147D01*
X019140Y000166D01*
X019204Y000190D01*
X019266Y000217D01*
X019327Y000247D01*
X019385Y000280D01*
X019442Y000316D01*
X019497Y000356D01*
X019550Y000398D01*
X019601Y000444D01*
X019648Y000491D01*
X019694Y000542D01*
X019736Y000595D01*
X019776Y000650D01*
X019812Y000707D01*
X019845Y000765D01*
X019875Y000826D01*
X019902Y000888D01*
X019926Y000952D01*
X019945Y001017D01*
X019962Y001082D01*
X019975Y001149D01*
X019984Y001216D01*
X019989Y001283D01*
X019991Y001351D01*
X018741Y000101D02*
X000121Y000101D01*
X000471Y001101D02*
X000473Y001151D01*
X000479Y001201D01*
X000489Y001251D01*
X000502Y001299D01*
X000519Y001347D01*
X000540Y001393D01*
X000564Y001437D01*
X000592Y001479D01*
X000623Y001519D01*
X000657Y001556D01*
X000694Y001591D01*
X000733Y001622D01*
X000774Y001651D01*
X000818Y001676D01*
X000864Y001698D01*
X000911Y001716D01*
X000959Y001730D01*
X001008Y001741D01*
X001058Y001748D01*
X001108Y001751D01*
X001159Y001750D01*
X001209Y001745D01*
X001259Y001736D01*
X001307Y001724D01*
X001355Y001707D01*
X001401Y001687D01*
X001446Y001664D01*
X001489Y001637D01*
X001529Y001607D01*
X001567Y001574D01*
X001602Y001538D01*
X001635Y001499D01*
X001664Y001458D01*
X001690Y001415D01*
X001713Y001370D01*
X001732Y001323D01*
X001747Y001275D01*
X001759Y001226D01*
X001767Y001176D01*
X001771Y001126D01*
X001771Y001076D01*
X001767Y001026D01*
X001759Y000976D01*
X001747Y000927D01*
X001732Y000879D01*
X001713Y000832D01*
X001690Y000787D01*
X001664Y000744D01*
X001635Y000703D01*
X001602Y000664D01*
X001567Y000628D01*
X001529Y000595D01*
X001489Y000565D01*
X001446Y000538D01*
X001401Y000515D01*
X001355Y000495D01*
X001307Y000478D01*
X001259Y000466D01*
X001209Y000457D01*
X001159Y000452D01*
X001108Y000451D01*
X001058Y000454D01*
X001008Y000461D01*
X000959Y000472D01*
X000911Y000486D01*
X000864Y000504D01*
X000818Y000526D01*
X000774Y000551D01*
X000733Y000580D01*
X000694Y000611D01*
X000657Y000646D01*
X000623Y000683D01*
X000592Y000723D01*
X000564Y000765D01*
X000540Y000809D01*
X000519Y000855D01*
X000502Y000903D01*
X000489Y000951D01*
X000479Y001001D01*
X000473Y001051D01*
X000471Y001101D01*
X001621Y017601D02*
X001623Y017664D01*
X001629Y017726D01*
X001639Y017788D01*
X001652Y017850D01*
X001670Y017910D01*
X001691Y017969D01*
X001716Y018027D01*
X001745Y018083D01*
X001777Y018137D01*
X001812Y018189D01*
X001850Y018238D01*
X001892Y018286D01*
X001936Y018330D01*
X001984Y018372D01*
X002033Y018410D01*
X002085Y018445D01*
X002139Y018477D01*
X002195Y018506D01*
X002253Y018531D01*
X002312Y018552D01*
X002372Y018570D01*
X002434Y018583D01*
X002496Y018593D01*
X002558Y018599D01*
X002621Y018601D01*
X002684Y018599D01*
X002746Y018593D01*
X002808Y018583D01*
X002870Y018570D01*
X002930Y018552D01*
X002989Y018531D01*
X003047Y018506D01*
X003103Y018477D01*
X003157Y018445D01*
X003209Y018410D01*
X003258Y018372D01*
X003306Y018330D01*
X003350Y018286D01*
X003392Y018238D01*
X003430Y018189D01*
X003465Y018137D01*
X003497Y018083D01*
X003526Y018027D01*
X003551Y017969D01*
X003572Y017910D01*
X003590Y017850D01*
X003603Y017788D01*
X003613Y017726D01*
X003619Y017664D01*
X003621Y017601D01*
X003619Y017538D01*
X003613Y017476D01*
X003603Y017414D01*
X003590Y017352D01*
X003572Y017292D01*
X003551Y017233D01*
X003526Y017175D01*
X003497Y017119D01*
X003465Y017065D01*
X003430Y017013D01*
X003392Y016964D01*
X003350Y016916D01*
X003306Y016872D01*
X003258Y016830D01*
X003209Y016792D01*
X003157Y016757D01*
X003103Y016725D01*
X003047Y016696D01*
X002989Y016671D01*
X002930Y016650D01*
X002870Y016632D01*
X002808Y016619D01*
X002746Y016609D01*
X002684Y016603D01*
X002621Y016601D01*
X002558Y016603D01*
X002496Y016609D01*
X002434Y016619D01*
X002372Y016632D01*
X002312Y016650D01*
X002253Y016671D01*
X002195Y016696D01*
X002139Y016725D01*
X002085Y016757D01*
X002033Y016792D01*
X001984Y016830D01*
X001936Y016872D01*
X001892Y016916D01*
X001850Y016964D01*
X001812Y017013D01*
X001777Y017065D01*
X001745Y017119D01*
X001716Y017175D01*
X001691Y017233D01*
X001670Y017292D01*
X001652Y017352D01*
X001639Y017414D01*
X001629Y017476D01*
X001623Y017538D01*
X001621Y017601D01*
X004121Y017601D02*
X004123Y017664D01*
X004129Y017726D01*
X004139Y017788D01*
X004152Y017850D01*
X004170Y017910D01*
X004191Y017969D01*
X004216Y018027D01*
X004245Y018083D01*
X004277Y018137D01*
X004312Y018189D01*
X004350Y018238D01*
X004392Y018286D01*
X004436Y018330D01*
X004484Y018372D01*
X004533Y018410D01*
X004585Y018445D01*
X004639Y018477D01*
X004695Y018506D01*
X004753Y018531D01*
X004812Y018552D01*
X004872Y018570D01*
X004934Y018583D01*
X004996Y018593D01*
X005058Y018599D01*
X005121Y018601D01*
X005184Y018599D01*
X005246Y018593D01*
X005308Y018583D01*
X005370Y018570D01*
X005430Y018552D01*
X005489Y018531D01*
X005547Y018506D01*
X005603Y018477D01*
X005657Y018445D01*
X005709Y018410D01*
X005758Y018372D01*
X005806Y018330D01*
X005850Y018286D01*
X005892Y018238D01*
X005930Y018189D01*
X005965Y018137D01*
X005997Y018083D01*
X006026Y018027D01*
X006051Y017969D01*
X006072Y017910D01*
X006090Y017850D01*
X006103Y017788D01*
X006113Y017726D01*
X006119Y017664D01*
X006121Y017601D01*
X006119Y017538D01*
X006113Y017476D01*
X006103Y017414D01*
X006090Y017352D01*
X006072Y017292D01*
X006051Y017233D01*
X006026Y017175D01*
X005997Y017119D01*
X005965Y017065D01*
X005930Y017013D01*
X005892Y016964D01*
X005850Y016916D01*
X005806Y016872D01*
X005758Y016830D01*
X005709Y016792D01*
X005657Y016757D01*
X005603Y016725D01*
X005547Y016696D01*
X005489Y016671D01*
X005430Y016650D01*
X005370Y016632D01*
X005308Y016619D01*
X005246Y016609D01*
X005184Y016603D01*
X005121Y016601D01*
X005058Y016603D01*
X004996Y016609D01*
X004934Y016619D01*
X004872Y016632D01*
X004812Y016650D01*
X004753Y016671D01*
X004695Y016696D01*
X004639Y016725D01*
X004585Y016757D01*
X004533Y016792D01*
X004484Y016830D01*
X004436Y016872D01*
X004392Y016916D01*
X004350Y016964D01*
X004312Y017013D01*
X004277Y017065D01*
X004245Y017119D01*
X004216Y017175D01*
X004191Y017233D01*
X004170Y017292D01*
X004152Y017352D01*
X004139Y017414D01*
X004129Y017476D01*
X004123Y017538D01*
X004121Y017601D01*
X015221Y018601D02*
X015223Y018641D01*
X015229Y018680D01*
X015239Y018719D01*
X015252Y018756D01*
X015270Y018792D01*
X015291Y018826D01*
X015315Y018858D01*
X015342Y018887D01*
X015372Y018914D01*
X015404Y018937D01*
X015439Y018957D01*
X015475Y018973D01*
X015513Y018986D01*
X015552Y018995D01*
X015591Y019000D01*
X015631Y019001D01*
X015671Y018998D01*
X015710Y018991D01*
X015748Y018980D01*
X015786Y018966D01*
X015821Y018947D01*
X015854Y018926D01*
X015886Y018901D01*
X015914Y018873D01*
X015940Y018843D01*
X015962Y018810D01*
X015981Y018775D01*
X015997Y018738D01*
X016009Y018700D01*
X016017Y018661D01*
X016021Y018621D01*
X016021Y018581D01*
X016017Y018541D01*
X016009Y018502D01*
X015997Y018464D01*
X015981Y018427D01*
X015962Y018392D01*
X015940Y018359D01*
X015914Y018329D01*
X015886Y018301D01*
X015854Y018276D01*
X015821Y018255D01*
X015786Y018236D01*
X015748Y018222D01*
X015710Y018211D01*
X015671Y018204D01*
X015631Y018201D01*
X015591Y018202D01*
X015552Y018207D01*
X015513Y018216D01*
X015475Y018229D01*
X015439Y018245D01*
X015404Y018265D01*
X015372Y018288D01*
X015342Y018315D01*
X015315Y018344D01*
X015291Y018376D01*
X015270Y018410D01*
X015252Y018446D01*
X015239Y018483D01*
X015229Y018522D01*
X015223Y018561D01*
X015221Y018601D01*
X016721Y018601D02*
X016723Y018641D01*
X016729Y018680D01*
X016739Y018719D01*
X016752Y018756D01*
X016770Y018792D01*
X016791Y018826D01*
X016815Y018858D01*
X016842Y018887D01*
X016872Y018914D01*
X016904Y018937D01*
X016939Y018957D01*
X016975Y018973D01*
X017013Y018986D01*
X017052Y018995D01*
X017091Y019000D01*
X017131Y019001D01*
X017171Y018998D01*
X017210Y018991D01*
X017248Y018980D01*
X017286Y018966D01*
X017321Y018947D01*
X017354Y018926D01*
X017386Y018901D01*
X017414Y018873D01*
X017440Y018843D01*
X017462Y018810D01*
X017481Y018775D01*
X017497Y018738D01*
X017509Y018700D01*
X017517Y018661D01*
X017521Y018621D01*
X017521Y018581D01*
X017517Y018541D01*
X017509Y018502D01*
X017497Y018464D01*
X017481Y018427D01*
X017462Y018392D01*
X017440Y018359D01*
X017414Y018329D01*
X017386Y018301D01*
X017354Y018276D01*
X017321Y018255D01*
X017286Y018236D01*
X017248Y018222D01*
X017210Y018211D01*
X017171Y018204D01*
X017131Y018201D01*
X017091Y018202D01*
X017052Y018207D01*
X017013Y018216D01*
X016975Y018229D01*
X016939Y018245D01*
X016904Y018265D01*
X016872Y018288D01*
X016842Y018315D01*
X016815Y018344D01*
X016791Y018376D01*
X016770Y018410D01*
X016752Y018446D01*
X016739Y018483D01*
X016729Y018522D01*
X016723Y018561D01*
X016721Y018601D01*
X018471Y019101D02*
X018473Y019151D01*
X018479Y019201D01*
X018489Y019251D01*
X018502Y019299D01*
X018519Y019347D01*
X018540Y019393D01*
X018564Y019437D01*
X018592Y019479D01*
X018623Y019519D01*
X018657Y019556D01*
X018694Y019591D01*
X018733Y019622D01*
X018774Y019651D01*
X018818Y019676D01*
X018864Y019698D01*
X018911Y019716D01*
X018959Y019730D01*
X019008Y019741D01*
X019058Y019748D01*
X019108Y019751D01*
X019159Y019750D01*
X019209Y019745D01*
X019259Y019736D01*
X019307Y019724D01*
X019355Y019707D01*
X019401Y019687D01*
X019446Y019664D01*
X019489Y019637D01*
X019529Y019607D01*
X019567Y019574D01*
X019602Y019538D01*
X019635Y019499D01*
X019664Y019458D01*
X019690Y019415D01*
X019713Y019370D01*
X019732Y019323D01*
X019747Y019275D01*
X019759Y019226D01*
X019767Y019176D01*
X019771Y019126D01*
X019771Y019076D01*
X019767Y019026D01*
X019759Y018976D01*
X019747Y018927D01*
X019732Y018879D01*
X019713Y018832D01*
X019690Y018787D01*
X019664Y018744D01*
X019635Y018703D01*
X019602Y018664D01*
X019567Y018628D01*
X019529Y018595D01*
X019489Y018565D01*
X019446Y018538D01*
X019401Y018515D01*
X019355Y018495D01*
X019307Y018478D01*
X019259Y018466D01*
X019209Y018457D01*
X019159Y018452D01*
X019108Y018451D01*
X019058Y018454D01*
X019008Y018461D01*
X018959Y018472D01*
X018911Y018486D01*
X018864Y018504D01*
X018818Y018526D01*
X018774Y018551D01*
X018733Y018580D01*
X018694Y018611D01*
X018657Y018646D01*
X018623Y018683D01*
X018592Y018723D01*
X018564Y018765D01*
X018540Y018809D01*
X018519Y018855D01*
X018502Y018903D01*
X018489Y018951D01*
X018479Y019001D01*
X018473Y019051D01*
X018471Y019101D01*
D11*
X013621Y008451D02*
X013621Y007751D01*
X012621Y007751D02*
X012621Y008451D01*
X011621Y008451D02*
X011621Y007751D01*
X010621Y007751D02*
X010621Y008451D01*
X009621Y008451D02*
X009621Y007751D01*
X008621Y007751D02*
X008621Y008451D01*
X007621Y008451D02*
X007621Y007751D01*
X006621Y007751D02*
X006621Y008451D01*
X006621Y004451D02*
X006621Y003751D01*
X007621Y003751D02*
X007621Y004451D01*
X008621Y004451D02*
X008621Y003751D01*
X009621Y003751D02*
X009621Y004451D01*
X010621Y004451D02*
X010621Y003751D01*
X011621Y003751D02*
X011621Y004451D01*
X012621Y004451D02*
X012621Y003751D01*
X013621Y003751D02*
X013621Y004451D01*
D12*
X013121Y002101D03*
X012371Y001601D03*
X013121Y001101D03*
X015121Y001601D03*
X015121Y000601D03*
X016371Y001601D03*
X017121Y002101D03*
X017121Y001101D03*
X011121Y001601D03*
X011121Y000601D03*
X008621Y001101D03*
X007871Y001601D03*
X008621Y002101D03*
X006621Y001601D03*
X006621Y000601D03*
X004621Y001101D03*
X003871Y001601D03*
X004621Y002101D03*
X002621Y001601D03*
X002621Y000601D03*
X004121Y009601D03*
X004121Y010601D03*
X005621Y010601D03*
X005621Y009601D03*
X007121Y009601D03*
X007121Y010601D03*
X008621Y010601D03*
X008621Y009601D03*
X010121Y009601D03*
X010121Y010601D03*
X011621Y010601D03*
X011621Y009601D03*
X013121Y009601D03*
X013121Y010601D03*
X018121Y013101D03*
X018121Y014101D03*
X017621Y016101D03*
X018621Y016101D03*
X018621Y017101D03*
X013621Y017101D03*
X004121Y016101D03*
X003121Y016101D03*
D13*
X003121Y015361D02*
X003121Y014841D01*
X004121Y014841D02*
X004121Y015361D01*
X005121Y015361D02*
X005121Y014841D01*
X006121Y014841D02*
X006121Y015361D01*
X007121Y015361D02*
X007121Y014841D01*
X008121Y014841D02*
X008121Y015361D01*
X009121Y015361D02*
X009121Y014841D01*
X010121Y014841D02*
X010121Y015361D01*
X011121Y015361D02*
X011121Y014841D01*
X012121Y014841D02*
X012121Y015361D01*
X013121Y015361D02*
X013121Y014841D01*
X014121Y014841D02*
X014121Y015361D01*
X015121Y015361D02*
X015121Y014841D01*
X016121Y014841D02*
X016121Y015361D01*
X016121Y012361D02*
X016121Y011841D01*
X015121Y011841D02*
X015121Y012361D01*
X014121Y012361D02*
X014121Y011841D01*
X013121Y011841D02*
X013121Y012361D01*
X012121Y012361D02*
X012121Y011841D01*
X011121Y011841D02*
X011121Y012361D01*
X010121Y012361D02*
X010121Y011841D01*
X009121Y011841D02*
X009121Y012361D01*
X008121Y012361D02*
X008121Y011841D01*
X007121Y011841D02*
X007121Y012361D01*
X006121Y012361D02*
X006121Y011841D01*
X005121Y011841D02*
X005121Y012361D01*
X004121Y012361D02*
X004121Y011841D01*
X003121Y011841D02*
X003121Y012361D01*
D14*
X016121Y009601D03*
D15*
X016121Y010601D03*
X017121Y010601D03*
X018121Y010601D03*
X018121Y009601D03*
X017121Y009601D03*
D16*
X007551Y017601D03*
D17*
X009069Y017601D03*
X010307Y017601D03*
X011825Y017601D03*
D18*
X001121Y016101D03*
X001121Y015101D03*
X001121Y005671D03*
X001121Y004601D03*
X001121Y003531D03*
D19*
X001121Y004601D02*
X003371Y004601D01*
X003871Y006601D02*
X003871Y001601D01*
X002621Y001601D01*
X004621Y002101D02*
X006621Y004101D01*
X007621Y004101D02*
X007621Y003101D01*
X008621Y002101D01*
X009121Y001601D02*
X009121Y012101D01*
X008621Y012601D01*
X008621Y016601D01*
X007621Y017601D01*
X007121Y018351D02*
X009621Y018351D01*
X009621Y013601D01*
X010621Y012601D01*
X010621Y009351D01*
X011121Y008851D01*
X011121Y001601D01*
X012371Y001601D01*
X013121Y002101D02*
X011621Y003601D01*
X011621Y004101D01*
X010621Y004101D02*
X010121Y004601D01*
X010121Y009601D01*
X011621Y009601D02*
X011621Y008101D01*
X013621Y011101D02*
X015621Y009101D01*
X017121Y009101D01*
X017121Y009601D01*
X017121Y010601D02*
X017121Y011101D01*
X016121Y011101D01*
X015621Y011601D01*
X015621Y012601D01*
X014371Y013851D01*
X014371Y014851D01*
X014121Y015101D01*
X014621Y015601D02*
X014621Y014601D01*
X015871Y013351D01*
X015871Y012351D01*
X016121Y012101D01*
X017621Y011101D02*
X017621Y014601D01*
X017621Y016101D01*
X018621Y016101D02*
X018621Y017101D01*
X016121Y017851D02*
X016121Y015101D01*
X017621Y014601D02*
X018121Y014101D01*
X017621Y011101D02*
X018121Y010601D01*
X016121Y009601D02*
X014621Y011101D01*
X014621Y012601D01*
X014121Y013101D01*
X014121Y014101D01*
X013121Y015101D01*
X012121Y015101D02*
X013621Y013601D01*
X013621Y011101D01*
X010121Y012101D02*
X009121Y013101D01*
X009121Y015101D01*
X009121Y017601D01*
X009069Y017601D01*
X010307Y017601D02*
X010371Y017601D01*
X010371Y016101D01*
X013621Y016101D01*
X014621Y015601D01*
X016121Y017851D02*
X012871Y018601D01*
X006621Y018601D01*
X006621Y016851D01*
X005621Y015851D01*
X004621Y015851D01*
X004621Y014601D01*
X004371Y014351D01*
X001621Y014351D01*
X001621Y015601D01*
X001121Y016101D01*
X004121Y012101D02*
X004121Y010601D01*
X005121Y011101D02*
X005121Y012101D01*
X005121Y011101D02*
X005621Y010601D01*
X006621Y009351D02*
X003871Y006601D01*
X006621Y009351D02*
X006621Y015851D01*
X007371Y015851D01*
X008121Y015101D01*
X007621Y014601D02*
X007621Y009351D01*
X007121Y008851D01*
X007121Y001601D01*
X006621Y001601D01*
X007121Y001601D02*
X007871Y001601D01*
X008621Y001101D02*
X009121Y001601D01*
X008621Y004101D02*
X008121Y004601D01*
X008121Y009101D01*
X008621Y009601D01*
X008621Y010601D02*
X008121Y011101D01*
X008121Y012101D01*
X007121Y012101D02*
X007121Y010601D01*
X007621Y014601D02*
X007121Y015101D01*
X006371Y015351D02*
X006371Y016101D01*
X006871Y016601D01*
X006871Y018101D01*
X007121Y018351D01*
X006371Y015351D02*
X006121Y015101D01*
X010121Y015101D02*
X011121Y015101D01*
X015121Y001601D02*
X016371Y001601D01*
D20*
X003371Y004601D03*
M02*
